Coordinates
version=1
nRows=15
nColumns=26
inDegrees=yes

Units are S.I. units (second, meters, Newtons, ...)
If the header above contains a line with 'inDegrees', this indicates whether rotational values are in degrees (yes) or radians (no).

endheader
time	pelvis_tilt	pelvis_list	pelvis_rotation	pelvis_tx	pelvis_ty	pelvis_tz	hip_flexion_r	hip_adduction_r	hip_rotation_r	knee_angle_r	knee_angle_r_beta	hip_flexion_l	hip_adduction_l	hip_rotation_l	knee_angle_l	knee_angle_l_beta	lumbar_extension	lumbar_bending	lumbar_rotation	ankle_angle_r	subtalar_angle_r	mtp_angle_r	ankle_angle_l	subtalar_angle_l	mtp_angle_l
      3.14666667	     -5.76797939	     -6.04361708	    -10.80776980	      0.71692490	      0.81184655	     -0.37035985	    -15.72637110	      4.57024257	     13.36098473	     16.68938791	      0.29128477	     34.09584905	    -10.82662904	      1.70743427	     17.61505518	      0.30744071	    -12.85257697	      6.76990444	      2.65296511	     -6.75903082	      4.88260820	      0.00000000	     -3.00635192	    -13.54831339	      0.00000000
      3.15333333	     -5.46363304	     -5.62706372	    -10.56615910	      0.72874232	      0.81105206	     -0.37239706	    -15.70042538	      3.87347175	     12.43465480	     18.16007325	      0.31695307	     33.87524741	    -10.09459686	      1.09903169	     18.89412466	      0.32976468	    -12.91633493	      6.38472028	      2.17549283	     -8.26999954	      5.21522797	      0.00000000	     -3.53298825	    -13.50552044	      0.00000000
      3.16000000	     -5.37800621	     -4.45560177	    -10.27087995	      0.74089527	      0.81015745	     -0.37483281	    -14.98174731	      2.28005807	     10.42120180	     20.18721246	      0.35233332	     33.63662508	     -8.53067716	      0.67320905	     19.65548964	      0.34305301	    -12.46963468	      5.22245461	      1.34610212	     -9.50420013	      6.96293214	      0.00000000	     -4.21924692	    -13.86412962	      0.00000000
      3.16666667	     -5.16366284	     -3.72333779	    -10.02240393	      0.75267729	      0.80963172	     -0.37713225	    -14.50405721	      1.20292936	      9.08021041	     22.03228509	      0.38453592	     33.36371508	     -7.44517489	      0.29765755	     20.72864836	      0.36178316	    -12.37191997	      4.55562320	      0.77629609	    -11.48949064	      7.43114182	      0.00000000	     -4.42515373	    -14.00192642	      0.00000000
      3.17333333	     -4.96296215	     -2.94501957	     -9.75219626	      0.76435314	      0.80926253	     -0.37942816	    -13.88841885	      0.07640303	      7.66664984	     24.01021656	      0.41905733	     33.08588185	     -6.29695542	     -0.00643841	     21.80079610	      0.38049567	    -12.26873828	      3.83066768	      0.11396495	    -13.43199534	      7.68180654	      0.00000000	     -4.40719500	    -14.15876753	      0.00000000
      3.18000000	     -4.80341183	     -2.06955815	     -9.46890105	      0.77594383	      0.80904263	     -0.38178161	    -13.10883258	     -1.16998337	      6.19939088	     26.10730510	      0.45565843	     32.81730749	     -5.03029212	     -0.23197534	     22.81844138	      0.39825693	    -12.11477513	      3.01501742	     -0.60935497	    -15.32170021	      7.76525753	      0.00000000	     -4.16524035	    -14.39662130	      0.00000000
      3.18666667	     -4.61577331	     -1.21223780	     -9.20054102	      0.78733372	      0.80903442	     -0.38412840	    -12.25342646	     -2.42296349	      4.79113820	     28.30151703	      0.49395466	     32.50016144	     -3.77574334	     -0.41739843	     23.83105333	      0.41593034	    -12.02457722	      2.23124923	     -1.33119623	    -17.07907974	      7.56676713	      0.00000000	     -3.76059336	    -14.69796013	      0.00000000
      3.19333333	     -4.44723578	     -0.37233058	     -8.94141757	      0.79861847	      0.80922616	     -0.38639117	    -11.32286513	     -3.65191391	      3.50244317	     30.50906270	      0.53248360	     32.14507698	     -2.52785791	     -0.51561165	     24.78703129	      0.43261531	    -11.93155471	      1.46362863	     -2.05031364	    -18.85313750	      6.94806348	      0.00000000	     -3.02342113	    -15.03159433	      0.00000000
      3.20000000	     -4.30101096	      0.47693215	     -8.68653153	      0.80972574	      0.80960767	     -0.38861751	    -10.28173236	     -4.89316603	      2.28815122	     32.77659799	      0.57205955	     31.76609256	     -1.25955030	     -0.57665980	     25.65263481	      0.44772294	    -11.83363520	      0.69439776	     -2.79069173	    -20.40669455	      5.87752727	      0.00000000	     -2.17483172	    -15.35772588	      0.00000000
      3.20666667	     -4.16761970	      1.27570079	     -8.46719211	      0.82065558	      0.81019004	     -0.39074432	     -9.16695830	     -6.08093871	      1.22842794	     35.05431527	      0.61181322	     31.32226971	     -0.04875689	     -0.61142556	     26.39595431	      0.46069631	    -11.75726286	     -0.01401481	     -3.49928041	    -21.74501938	      4.36430724	      0.00000000	     -1.21534662	    -15.68062945	      0.00000000
      3.21333333	     -4.03645889	      2.03061958	     -8.27420670	      0.83143920	      0.81095204	     -0.39276004	     -7.99755431	     -7.20962665	      0.31293086	     37.31250726	      0.65122610	     30.80291968	      1.11756777	     -0.63470149	     27.02625103	      0.47169706	    -11.69902145	     -0.67704732	     -4.17891996	    -22.84073662	      2.42098854	      0.00000000	     -0.16463593	    -15.99643501	      0.00000000
      3.22000000	     -3.93433696	      2.71904654	     -8.11719975	      0.84204292	      0.81193142	     -0.39469262	     -6.74395214	     -8.25614890	     -0.46420525	     39.54226267	      0.69014268	     30.20504581	      2.21211684	     -0.62771862	     27.44828635	      0.47906297	    -11.62895520	     -1.24714704	     -4.83121482	    -23.68814139	      0.03312497	      0.00000000	      0.87629378	    -16.25767797	      0.00000000
      3.22666667	     -3.85436710	      3.35130715	     -7.99995432	      0.85245781	      0.81306752	     -0.39638138	     -5.41332286	     -9.19543846	     -1.06963033	     41.73038708	      0.72833265	     29.53812535	      3.22008143	     -0.61462124	     27.69738903	      0.48341063	    -11.54804831	     -1.79730325	     -5.39620464	    -24.37351605	     -2.76080954	      0.00000000	      1.83747705	    -16.46932705	      0.00000000
      3.23333333	     -3.80083840	      3.90762285	     -7.91721725	      0.86270678	      0.81438599	     -0.39803383	     -4.02016007	    -10.03227278	     -1.52701341	     43.81681716	      0.76474773	     28.79888985	      4.14900356	     -0.56836279	     27.76503253	      0.48459123	    -11.46509828	     -2.22897757	     -5.89966056	    -24.91424394	     -5.81044356	      0.00000000	      2.69341266	    -16.65295978	      0.00000000
      3.24000000	     -3.79076450	      4.35649483	     -7.91279216	      0.87275926	      0.81584197	     -0.39943670	     -2.52918145	    -10.69591202	     -1.79774638	     45.80919070	      0.79952121	     28.02170020	      4.91010536	     -0.59441893	     27.68508307	      0.48319585	    -11.37655327	     -2.56198914	     -6.27766063	    -25.60982664	     -9.19363822	      0.00000000	      3.40981366	    -16.86417564	      0.00000000
